<svg width="2364" height="733" viewBox="0 0 2364 733" fill="none" xmlns="http://www.w3.org/2000/svg">
<g clip-path="url(#clip0_601_9)">
<rect width="2364" height="733" fill="#4070F4"/>
<path d="M61.6264 513V222.091H131.939V338.852H246.57V222.091H316.74V513H246.57V396.097H131.939V513H61.6264ZM462.692 517.119C439.775 517.119 420.078 512.432 403.601 503.057C387.218 493.587 374.576 480.424 365.675 463.568C356.868 446.617 352.464 426.968 352.464 404.619C352.464 382.176 356.868 362.527 365.675 345.67C374.576 328.72 387.218 315.557 403.601 306.182C420.078 296.712 439.775 291.977 462.692 291.977C485.608 291.977 505.258 296.712 521.641 306.182C538.118 315.557 550.76 328.72 559.567 345.67C568.468 362.527 572.919 382.176 572.919 404.619C572.919 426.968 568.468 446.617 559.567 463.568C550.76 480.424 538.118 493.587 521.641 503.057C505.258 512.432 485.608 517.119 462.692 517.119ZM463.118 464.705C471.451 464.705 478.506 462.148 484.283 457.034C490.059 451.92 494.463 444.818 497.493 435.727C500.618 426.636 502.18 416.125 502.18 404.193C502.18 392.072 500.618 381.466 497.493 372.375C494.463 363.284 490.059 356.182 484.283 351.068C478.506 345.955 471.451 343.398 463.118 343.398C454.5 343.398 447.209 345.955 441.243 351.068C435.372 356.182 430.874 363.284 427.749 372.375C424.718 381.466 423.203 392.072 423.203 404.193C423.203 416.125 424.718 426.636 427.749 435.727C430.874 444.818 435.372 451.92 441.243 457.034C447.209 462.148 454.5 464.705 463.118 464.705ZM608.501 513V294.818H674.553V334.875H676.967C681.513 321.617 689.183 311.153 699.979 303.483C710.774 295.812 723.653 291.977 738.615 291.977C753.767 291.977 766.74 295.86 777.536 303.625C788.331 311.39 795.196 321.807 798.132 334.875H800.405C804.477 321.902 812.431 311.532 824.268 303.767C836.106 295.907 850.073 291.977 866.172 291.977C886.816 291.977 903.577 298.606 916.456 311.864C929.335 325.027 935.774 343.114 935.774 366.125V513H866.314V382.034C866.314 371.144 863.52 362.858 857.933 357.176C852.346 351.4 845.102 348.511 836.2 348.511C826.636 348.511 819.107 351.636 813.615 357.886C808.217 364.042 805.518 372.328 805.518 382.744V513H738.757V381.324C738.757 371.191 736.011 363.189 730.518 357.318C725.026 351.447 717.782 348.511 708.786 348.511C702.725 348.511 697.375 349.979 692.734 352.915C688.094 355.756 684.448 359.828 681.797 365.131C679.24 370.434 677.962 376.684 677.962 383.881V513H608.501ZM1080.8 517.119C1057.98 517.119 1038.28 512.621 1021.71 503.625C1005.23 494.534 992.545 481.608 983.643 464.847C974.837 447.991 970.433 427.962 970.433 404.761C970.433 382.223 974.884 362.527 983.786 345.67C992.687 328.72 1005.23 315.557 1021.43 306.182C1037.62 296.712 1056.7 291.977 1078.67 291.977C1094.2 291.977 1108.41 294.392 1121.29 299.222C1134.16 304.051 1145.29 311.201 1154.67 320.67C1164.04 330.14 1171.33 341.835 1176.54 355.756C1181.75 369.581 1184.35 385.443 1184.35 403.341V420.67H994.723V380.33H1119.72C1119.63 372.943 1117.88 366.362 1114.47 360.585C1111.06 354.809 1106.37 350.311 1100.4 347.091C1094.53 343.777 1087.76 342.119 1080.09 342.119C1072.33 342.119 1065.37 343.871 1059.21 347.375C1053.06 350.784 1048.18 355.472 1044.58 361.438C1040.98 367.309 1039.09 373.985 1038.9 381.466V422.517C1038.9 431.419 1040.65 439.231 1044.15 445.955C1047.66 452.583 1052.63 457.744 1059.07 461.438C1065.51 465.131 1073.18 466.977 1082.08 466.977C1088.24 466.977 1093.82 466.125 1098.84 464.42C1103.86 462.716 1108.17 460.206 1111.77 456.892C1115.37 453.578 1118.07 449.506 1119.87 444.676L1183.64 446.523C1180.99 460.822 1175.17 473.275 1166.17 483.881C1157.27 494.392 1145.58 502.583 1131.09 508.455C1116.6 514.231 1099.84 517.119 1080.8 517.119ZM1410.31 361.438L1346.53 363.142C1345.87 358.597 1344.07 354.572 1341.14 351.068C1338.2 347.47 1334.37 344.676 1329.63 342.688C1324.99 340.604 1319.59 339.562 1313.44 339.562C1305.39 339.562 1298.52 341.172 1292.84 344.392C1287.25 347.612 1284.51 351.968 1284.6 357.46C1284.51 361.722 1286.21 365.415 1289.72 368.54C1293.31 371.665 1299.71 374.174 1308.89 376.068L1350.94 384.023C1372.72 388.189 1388.91 395.102 1399.52 404.761C1410.22 414.42 1415.62 427.205 1415.71 443.114C1415.62 458.076 1411.16 471.097 1402.36 482.176C1393.65 493.256 1381.71 501.873 1366.56 508.028C1351.41 514.089 1334.08 517.119 1314.57 517.119C1283.42 517.119 1258.84 510.727 1240.85 497.943C1222.95 485.064 1212.73 467.83 1210.17 446.239L1278.78 444.534C1280.29 452.489 1284.22 458.549 1290.57 462.716C1296.91 466.883 1305.01 468.966 1314.86 468.966C1323.76 468.966 1331 467.309 1336.59 463.994C1342.18 460.68 1345.02 456.277 1345.11 450.784C1345.02 445.86 1342.84 441.93 1338.58 438.994C1334.32 435.964 1327.64 433.597 1318.55 431.892L1280.48 424.648C1258.61 420.67 1242.32 413.331 1231.62 402.631C1220.92 391.835 1215.62 378.104 1215.71 361.438C1215.62 346.854 1219.5 334.402 1227.36 324.08C1235.22 313.663 1246.39 305.708 1260.88 300.216C1275.37 294.723 1292.46 291.977 1312.16 291.977C1341.7 291.977 1365 298.18 1382.05 310.585C1399.09 322.896 1408.51 339.847 1410.31 361.438ZM1573.06 294.818V345.955H1435.42V294.818H1573.06ZM1464.25 242.545H1533.71V444.392C1533.71 448.653 1534.38 452.11 1535.7 454.761C1537.12 457.318 1539.16 459.165 1541.81 460.301C1544.46 461.343 1547.63 461.864 1551.33 461.864C1553.98 461.864 1556.77 461.627 1559.71 461.153C1562.74 460.585 1565.01 460.112 1566.53 459.733L1577.04 509.875C1573.72 510.822 1569.04 512.006 1562.98 513.426C1557.01 514.847 1549.86 515.746 1541.53 516.125C1525.24 516.883 1511.27 514.989 1499.62 510.443C1488.07 505.803 1479.22 498.606 1473.06 488.852C1467 479.098 1464.06 466.835 1464.25 452.062V242.545ZM1708.15 517.119C1685.32 517.119 1665.63 512.621 1649.06 503.625C1632.58 494.534 1619.89 481.608 1610.99 464.847C1602.18 447.991 1597.78 427.962 1597.78 404.761C1597.78 382.223 1602.23 362.527 1611.13 345.67C1620.03 328.72 1632.58 315.557 1648.77 306.182C1664.96 296.712 1684.05 291.977 1706.02 291.977C1721.55 291.977 1735.75 294.392 1748.63 299.222C1761.51 304.051 1772.63 311.201 1782.01 320.67C1791.38 330.14 1798.68 341.835 1803.88 355.756C1809.09 369.581 1811.7 385.443 1811.7 403.341V420.67H1622.07V380.33H1747.07C1746.97 372.943 1745.22 366.362 1741.81 360.585C1738.4 354.809 1733.71 350.311 1727.75 347.091C1721.88 343.777 1715.11 342.119 1707.44 342.119C1699.67 342.119 1692.71 343.871 1686.56 347.375C1680.4 350.784 1675.52 355.472 1671.92 361.438C1668.33 367.309 1666.43 373.985 1666.24 381.466V422.517C1666.24 431.419 1667.99 439.231 1671.5 445.955C1675 452.583 1679.97 457.744 1686.41 461.438C1692.85 465.131 1700.52 466.977 1709.42 466.977C1715.58 466.977 1721.17 466.125 1726.19 464.42C1731.21 462.716 1735.51 460.206 1739.11 456.892C1742.71 453.578 1745.41 449.506 1747.21 444.676L1810.99 446.523C1808.34 460.822 1802.51 473.275 1793.52 483.881C1784.61 494.392 1772.92 502.583 1758.43 508.455C1743.94 514.231 1727.18 517.119 1708.15 517.119ZM1908.68 516.693C1894.76 516.693 1882.4 514.373 1871.61 509.733C1860.9 504.998 1852.43 497.896 1846.18 488.426C1840.02 478.862 1836.95 466.883 1836.95 452.489C1836.95 440.367 1839.08 430.14 1843.34 421.807C1847.6 413.473 1853.47 406.703 1860.95 401.494C1868.43 396.286 1877.05 392.356 1886.8 389.705C1896.56 386.958 1906.97 385.112 1918.05 384.165C1930.46 383.028 1940.45 381.845 1948.03 380.614C1955.6 379.288 1961.09 377.441 1964.5 375.074C1968.01 372.612 1969.76 369.155 1969.76 364.705V363.994C1969.76 356.703 1967.25 351.068 1962.23 347.091C1957.21 343.114 1950.44 341.125 1941.92 341.125C1932.73 341.125 1925.35 343.114 1919.76 347.091C1914.17 351.068 1910.62 356.561 1909.11 363.568L1845.04 361.295C1846.94 348.038 1851.81 336.201 1859.67 325.784C1867.63 315.273 1878.52 307.034 1892.34 301.068C1906.26 295.008 1922.98 291.977 1942.49 291.977C1956.41 291.977 1969.24 293.634 1980.98 296.949C1992.72 300.169 2002.95 304.903 2011.66 311.153C2020.37 317.309 2027.1 324.884 2031.83 333.881C2036.66 342.877 2039.08 353.152 2039.08 364.705V513H1973.74V482.602H1972.03C1968.15 489.989 1963.18 496.239 1957.12 501.352C1951.15 506.466 1944.1 510.301 1935.95 512.858C1927.9 515.415 1918.81 516.693 1908.68 516.693ZM1930.13 471.239C1937.61 471.239 1944.33 469.723 1950.3 466.693C1956.36 463.663 1961.19 459.496 1964.79 454.193C1968.39 448.795 1970.18 442.545 1970.18 435.443V414.705C1968.2 415.746 1965.78 416.693 1962.94 417.545C1960.19 418.398 1957.16 419.203 1953.85 419.96C1950.54 420.718 1947.13 421.381 1943.62 421.949C1940.12 422.517 1936.76 423.038 1933.54 423.511C1927 424.553 1921.42 426.163 1916.78 428.341C1912.23 430.519 1908.73 433.36 1906.26 436.864C1903.9 440.273 1902.71 444.345 1902.71 449.08C1902.71 456.277 1905.27 461.769 1910.38 465.557C1915.59 469.345 1922.17 471.239 1930.13 471.239ZM2161.24 516.125C2145.14 516.125 2130.51 511.958 2117.34 503.625C2104.18 495.292 2093.67 482.792 2085.81 466.125C2077.95 449.458 2074.02 428.767 2074.02 404.051C2074.02 378.388 2078.09 357.271 2086.24 340.699C2094.38 324.127 2105.03 311.864 2118.2 303.909C2131.45 295.955 2145.71 291.977 2160.95 291.977C2172.41 291.977 2182.21 293.966 2190.36 297.943C2198.5 301.826 2205.22 306.845 2210.53 313C2215.83 319.155 2219.85 325.547 2222.6 332.176H2224.02V222.091H2293.48V513H2224.73V477.631H2222.6C2219.66 484.354 2215.5 490.652 2210.1 496.523C2204.7 502.394 2197.93 507.129 2189.79 510.727C2181.74 514.326 2172.22 516.125 2161.24 516.125ZM2185.38 462.006C2193.81 462.006 2201.01 459.638 2206.97 454.903C2212.94 450.074 2217.53 443.303 2220.75 434.591C2223.97 425.879 2225.58 415.652 2225.58 403.909C2225.58 391.977 2223.97 381.703 2220.75 373.085C2217.63 364.468 2213.04 357.839 2206.97 353.199C2201.01 348.559 2193.81 346.239 2185.38 346.239C2176.77 346.239 2169.47 348.606 2163.51 353.341C2157.54 358.076 2153 364.752 2149.87 373.369C2146.84 381.987 2145.33 392.167 2145.33 403.909C2145.33 415.652 2146.89 425.879 2150.01 434.591C2153.14 443.303 2157.64 450.074 2163.51 454.903C2169.47 459.638 2176.77 462.006 2185.38 462.006Z" fill="#FFC220"/>
</g>
<defs>
<clipPath id="clip0_601_9">
<rect width="2364" height="733" fill="white"/>
</clipPath>
</defs>
</svg>
